# xmcd
#
# Track frame offsets: 
#        150
#        32290
#        68890
#        107100
#        171360
#        194610
#        242290
#        285425
#
# Disc length: 4251 seconds
#
# Revision: 1
# Processed by: cddbd v1.5.2PL0 Copyright (c) Steve Scherf et al.
# Submitted via: ExactAudioCopy v0.99pb4
#
DISCID=66109908
DTITLE=Don Menza - Menza Lines
DYEAR=2005
DGENRE=Big Band
TTITLE0=Gravy (aka Walkin')
TTITLE1=Nina Never Knew
TTITLE2=T 'n' T
TTITLE3=Faviana
TTITLE4=Hack' the Harold
TTITLE5=Broad Bottom
TTITLE6=Prelude to a Kiss
TTITLE7=Time to Leave
EXTD=YEAR: 2004
EXTT0=
EXTT1=
EXTT2=
EXTT3=
EXTT4=
EXTT5=
EXTT6=
EXTT7=
PLAYORDER=
